<?xml version="1.0" encoding="UTF-8"?>
<!-- Generator: Adobe Illustrator 19.0.0, SVG Export Plug-In . SVG Version: 6.00 Build 0)  -->
<svg id="Selfmade_by_NICF-Nettie" width="1640.8" height="194.8" version="1.1" viewBox="0 0 1640.8 194.8" xml:space="preserve" xmlns="http://www.w3.org/2000/svg">


<g id="saving_private_ryan" transform="translate(-174,-362.3)">
	<g id="g1115">
		<path id="path1081" d="m244.7 435.5c-0.2-3.6-2.1-6.3-4.9-8.3-2.6-2.1-6-3.2-9.4-3.2-6 0-12.9 1.3-12.9 8.5 0 3.2 2.6 4.7 4.9 5.7 7.1 3 23.2 3.8 37.3 8.5 14.2 4.4 26.6 12.7 26.6 30.7 0 30.5-29.6 38.7-56.7 38.7-26.2 0-54.9-10.4-55.6-38.7h40.6c0.2 3.8 1.9 7 5.2 9.7 2.1 1.9 6.2 3.2 11.4 3.2 5.6 0 14.4-2.1 14.4-8.5 0-6.3-3.6-8.3-23.4-11.6-32.4-5.5-45.5-15.7-45.5-34.5 0-27.7 30.3-34.9 52.6-34.9 24 0 53 6.6 54.1 34.7z"/>
		<path id="path1083" d="m405.8 488.8c0 8.3 0.4 17.6 5.2 24.5h-43.4c-1.1-3-1.7-7.4-1.5-10.4h-0.4c-9 10.2-22.1 13.1-35.8 13.1-21.5 0-39.3-10.2-39.3-33.2 0-34.7 41.2-33.4 62.9-37.5 5.8-1.1 11.6-2.8 11.6-9.7 0-7.4-7.1-10.2-14-10.2-13.1 0-15.7 6.6-15.9 11.2h-39.5c0.6-15.4 8.4-24.5 19.3-29.6 10.7-5.1 24.9-6.3 38-6.3 53.2 0 52.8 21.8 52.8 43zm-40.8-24.8c-5.2 2.5-10.9 4-16.7 5.3-9.4 2.1-14.4 4.4-14.4 11.8 0 5.1 5.6 10.2 13.3 10.2 9.7 0 17.2-5.7 17.8-17.1v-10.2z"/>
		<path id="path1085" d="m487.2 513.3h-49.7l-36.1-109.8h44.4l17.2 66.9h0.4l17.4-66.9h42.9z"/>
		<path id="path1087" d="m569.5 391.7h-42.5v-29.4h42.5zm-42.5 11.8h42.5v109.8h-42.5z"/>
		<path id="path1089" d="m578.6 403.5h41v14h0.4c7.9-11 19.3-16.7 36.3-16.7 20 0 38.2 12.1 38.2 37.2v75.3h-42.5v-57.6c0-12.7-1.5-21.6-13.9-21.6-7.3 0-17 3.6-17 21.2v58h-42.5z"/>
		<path id="path1091" d="m819.5 499.2c0 21.8-5.8 52.5-57.9 52.5-26.4 0-54.3-7-58.2-36.6h42.1c0.4 1.1 1.5 2.5 2.4 3.8 2.6 3.8 7.1 8 12.4 8 13.7 0 16.7-16.1 16.7-25.2v-10.2h-0.4c-6.9 9.7-17.2 15.2-29.8 15.2-32.8 0-47.6-24.1-47.6-53.5 0-28.6 16.5-52.5 48.3-52.5 12.4 0 24.3 4.9 29.2 16.1h0.4v-13.3h42.5v95.7zm-58.8-19.3c15.7 0 17.4-14.8 17.4-27.1 0-12.1-6-21.6-18.5-21.6-12 0-18 10.2-18 21.8 0 12.5 3.9 26.9 19.1 26.9z"/>
		<path id="path1093" d="m885.6 403.9h17.4v14.8h0.4c5.7-12.1 19.3-17.4 33.8-17.4 32.6 0 48.8 26.7 48.8 57.6s-16 56.9-48.4 56.9c-10.9 0-26.4-4.2-34.2-17.1h-0.4v56.5h-17.4zm49.1 13.4c-23.4 0-32.4 20.7-32.4 41.3 0 21.6 9.4 41.5 33.4 41.5 23.8 0 31.8-20.9 31.8-42.3 0-20.6-10.2-40.5-32.8-40.5z"/>
		<path id="path1095" d="m992.5 403.9h17.2v23.1h0.4c8.8-17.6 21-26.2 40.8-25.6v19c-29.4 0-40.1 16.5-40.1 44.2v48.7h-18.2v-109.4z"/>
		<path id="path1097" d="m1071.7 384.4h-18.2v-22h18.2zm-18.2 19.7h18.2v109.4h-18.2z"/>
		<path id="path1099" d="m1136.3 513.5h-18.6l-39.2-109.4h19.4l29.6 91.2h0.4l28.8-91.2h18.2z"/>
		<path id="path1101" d="m1268.5 512.9c-3.1 1.9-7.1 3-12.8 3-9.2 0-15.1-5.1-15.1-16.9-9.8 11.6-23 16.9-38.1 16.9-19.7 0-35.8-8.9-35.8-30.7 0-24.8 18.2-30 36.7-33.6 19.7-3.8 36.5-2.5 36.5-16.1 0-15.7-12.8-18.2-24.1-18.2-15.1 0-26.2 4.7-27 20.7h-17.8c1-27.1 21.8-36.6 45.9-36.6 19.5 0 40.6 4.4 40.6 30v56.3c0 8.5 0 12.3 5.7 12.3 1.5 0 3.1-0.2 5.4-1.1v14zm-28.9-56.1c-6.9 5.1-20.3 5.3-32.3 7.4-11.7 2.1-21.8 6.3-21.8 19.7 0 11.9 10.1 16.1 21 16.1 23.5 0 33.1-14.8 33.1-24.8z"/>
		<path id="path1103" d="m1294.5 404.1h22.1v15.9h-22.1v67.9c0 8.3 2.4 9.7 13.7 9.7h8.4v15.9h-14c-18.9 0-26.4-3.8-26.4-23.9v-69.6h-18.9v-15.9h18.9v-32.8h18.2v32.8z"/>
		<path id="path1105" d="m1408.7 478.6c-4.8 24.1-21.8 37.2-45.8 37.2-34.2 0-50.4-24.1-51.4-57.6 0-32.8 21.2-56.9 50.4-56.9 37.9 0 49.6 36.2 48.5 62.6h-80.3c-0.6 19 10 36 33.4 36 14.5 0 24.7-7.2 27.8-21.4h17.4zm-17-30.4c-0.8-17.1-13.5-30.9-30.9-30.9-18.5 0-29.4 14.2-30.7 30.9z"/>
		<path id="path1107" d="m1472.9 404.1h17.2v23.1h0.4c8.8-17.6 21-26.2 40.8-25.6v19c-29.4 0-40.1 16.5-40.1 44.2v48.7h-18.2v-109.4z"/>
		<path id="path1109" d="m1581.7 527.9c-7.8 21.4-14.7 29.2-29.9 29.2-4 0-8-0.4-11.8-1.9v-16.5c3.2 1.1 6.6 2.5 10 2.5 7 0 10.8-3.6 13.9-9.9l7-18.6-40.8-108.8h19.1l30.1 89.5h0.4l28.9-89.5h17.9z"/>
		<path id="path1111" d="m1723.8 512.9c-3.1 1.9-7 3-12.6 3-9.1 0-14.9-5.1-14.9-16.9-9.7 11.6-22.8 16.9-37.7 16.9-19.5 0-35.4-8.9-35.4-30.7 0-24.8 18-30 36.2-33.6 19.5-3.8 36-2.5 36-16.1 0-15.7-12.6-18.2-23.8-18.2-14.9 0-25.9 4.7-26.7 20.7h-17.6c1-27.1 21.5-36.6 45.3-36.6 19.3 0 40.2 4.4 40.2 30v56.3c0 8.5 0 12.3 5.6 12.3 1.4 0 3.1-0.2 5.4-1.1zm-28.6-56.1c-6.8 5.1-20.1 5.3-31.9 7.4-11.6 2.1-21.5 6.3-21.5 19.7 0 11.9 9.9 16.1 20.7 16.1 23.2 0 32.7-14.8 32.7-24.8z"/>
		<path id="path1113" d="m1727 404.1h16.4v17.4h0.4c7.4-13.5 19.3-19.9 34.5-19.9 27.9 0 36.5 16.5 36.5 40v71.9h-17.4v-74.1c0-13.3-8.2-22-21.6-22-21.1 0-31.4 14.6-31.4 34.3v61.8h-17.4z"/>
	</g>
</g>

</svg>
